<svg height="512" viewBox="0 0 256 256" width="512" xmlns="http://www.w3.org/2000/svg"><path d="m132.454 219.554h117.943v7.383h-117.943z" fill="#63bce7"/><path d="m136.74 212.171h109.37v7.383h-109.37z" fill="#63bce7"/><rect fill="#63bce7" height="9.575" rx="3.533" width="120.012" x="131.419" y="140.211"/><path d="m142.431 140.211 48.994-40.568 48.994 40.568z" fill="#63bce7"/><path d="m97.278 204.38h16.29a0 0 0 0 1 0 0v2.791a5 5 0 0 1 -5 5h-6.29a5 5 0 0 1 -5-5v-2.791a0 0 0 0 1 0 0z" fill="#f46275" transform="matrix(-1 0 0 -1 210.847 416.55)"/><path d="m97.278 149.786h16.29a0 0 0 0 1 0 0v2.791a5 5 0 0 1 -5 5h-6.29a5 5 0 0 1 -5-5v-2.791a0 0 0 0 1 0 0z" fill="#f46275"/><path d="m15.581 140.211 48.994-40.568 48.994 40.568z" fill="#63bce7"/><path d="m64.575 99.643-48.994 40.568h15.5l41.244-34.151z" fill="#6377e7"/><path d="m191.425 99.643 48.994 40.568h-15.5l-41.244-34.151z" fill="#63e2e7"/><rect fill="#63bce7" height="9.575" rx="3.533" width="120.012" x="4.569" y="140.211"/><path d="m20.069 146.253v-2.509a3.544 3.544 0 0 1 3.533-3.533h-15.502a3.544 3.544 0 0 0 -3.533 3.533v2.509a3.544 3.544 0 0 0 3.533 3.533h15.5a3.544 3.544 0 0 1 -3.531-3.533z" fill="#6377e7"/><path d="m235.931 146.253v-2.509a3.544 3.544 0 0 0 -3.533-3.533h15.5a3.544 3.544 0 0 1 3.533 3.533v2.509a3.544 3.544 0 0 1 -3.533 3.533h-15.498a3.544 3.544 0 0 0 3.531-3.533z" fill="#63e2e7"/><path d="m56.43 149.786h16.29a0 0 0 0 1 0 0v2.791a5 5 0 0 1 -5 5h-6.29a5 5 0 0 1 -5-5v-2.791a0 0 0 0 1 0 0z" fill="#f46275"/><path d="m56.43 204.38h16.29a0 0 0 0 1 0 0v2.791a5 5 0 0 1 -5 5h-6.29a5 5 0 0 1 -5-5v-2.791a0 0 0 0 1 0 0z" fill="#f46275" transform="matrix(-1 0 0 -1 129.149 416.55)"/><path d="m60.296 157.577h8.868v46.803h-8.868z" fill="#9e9e9e"/><path d="m15.581 149.786h16.29a0 0 0 0 1 0 0v2.791a5 5 0 0 1 -5 5h-6.29a5 5 0 0 1 -5-5v-2.791a0 0 0 0 1 0 0z" fill="#f43075"/><path d="m15.581 204.38h16.29a0 0 0 0 1 0 0v2.791a5 5 0 0 1 -5 5h-6.29a5 5 0 0 1 -5-5v-2.791a0 0 0 0 1 0 0z" fill="#f43075" transform="matrix(-1 0 0 -1 47.451 416.55)"/><path d="m19.447 157.577h8.868v46.803h-8.868z" fill="#707070"/><path d="m101.145 157.577h8.868v46.803h-8.868z" fill="#9e9e9e"/><path d="m9.89 212.171h109.37v7.383h-109.37z" fill="#63bce7"/><path d="m9.89 212.171h15.5v7.383h-15.5z" fill="#6377e7"/><path d="m230.61 212.171h15.5v7.383h-15.5z" fill="#63e2e7"/><path d="m5.603 219.554h117.943v7.383h-117.943z" fill="#63bce7"/><path d="m5.603 219.554h15.5v7.383h-15.5z" fill="#6377e7"/><path d="m234.897 219.554h15.5v7.383h-15.5z" fill="#63e2e7"/><path d="m224.129 204.38h16.29a0 0 0 0 1 0 0v2.791a5 5 0 0 1 -5 5h-6.29a5 5 0 0 1 -5-5v-2.791a0 0 0 0 1 0 0z" fill="#f48875" transform="matrix(-1 0 0 -1 464.549 416.55)"/><path d="m224.129 149.786h16.29a0 0 0 0 1 0 0v2.791a5 5 0 0 1 -5 5h-6.29a5 5 0 0 1 -5-5v-2.791a0 0 0 0 1 0 0z" fill="#f48875"/><path d="m183.28 149.786h16.29a0 0 0 0 1 0 0v2.791a5 5 0 0 1 -5 5h-6.29a5 5 0 0 1 -5-5v-2.791a0 0 0 0 1 0 0z" fill="#f46275"/><path d="m183.28 204.38h16.29a0 0 0 0 1 0 0v2.791a5 5 0 0 1 -5 5h-6.29a5 5 0 0 1 -5-5v-2.791a0 0 0 0 1 0 0z" fill="#f46275" transform="matrix(-1 0 0 -1 382.851 416.55)"/><path d="m187.147 157.577h8.868v46.803h-8.868z" fill="#9e9e9e"/><path d="m142.431 149.786h16.29a0 0 0 0 1 0 0v2.791a5 5 0 0 1 -5 5h-6.29a5 5 0 0 1 -5-5v-2.791a0 0 0 0 1 0 0z" fill="#f46275"/><path d="m142.431 204.38h16.29a0 0 0 0 1 0 0v2.791a5 5 0 0 1 -5 5h-6.29a5 5 0 0 1 -5-5v-2.791a0 0 0 0 1 0 0z" fill="#f46275" transform="matrix(-1 0 0 -1 301.153 416.55)"/><path d="m146.298 157.577h8.868v46.803h-8.868z" fill="#9e9e9e"/><path d="m227.996 157.577h8.868v46.803h-8.868z" fill="#cecece"/><circle cx="64.575" cy="53.538" fill="#f8af23" r="35.448"/><path d="m44.627 53.538a35.454 35.454 0 0 1 27.7-34.588 35.448 35.448 0 1 0 0 69.176 35.454 35.454 0 0 1 -27.7-34.588z" fill="#f87023"/><path d="m79.588 53.52v10.3a2.828 2.828 0 0 1 -.9 2.089 2.956 2.956 0 0 1 -2.142.885h-9.068v7.258a2.842 2.842 0 0 1 -.885 2.107 2.886 2.886 0 0 1 -2.089.867 2.968 2.968 0 0 1 -2.16-.867 2.84 2.84 0 0 1 -.885-2.107v-7.324h-8.993a2.882 2.882 0 0 1 -2.089-.867 2.84 2.84 0 0 1 -.885-2.107 2.961 2.961 0 0 1 2.974-2.974h21.034v-4.285h-20.964a2.9 2.9 0 0 1 -2.106-.85 2.849 2.849 0 0 1 -.868-2.125v-10.267a2.962 2.962 0 0 1 2.974-2.974h8.922v-7.259a2.937 2.937 0 0 1 3.081-2.974 2.829 2.829 0 0 1 2.071.867 2.87 2.87 0 0 1 .867 2.107v7.258h9.135a2.958 2.958 0 0 1 2.142.885 2.831 2.831 0 0 1 .9 2.089 3.084 3.084 0 0 1 -3.041 3.048h-21.032v4.248h20.961a2.959 2.959 0 0 1 2.142.885 2.83 2.83 0 0 1 .904 2.087z" fill="#3f3679"/><circle cx="191.425" cy="53.538" fill="#f8af23" r="35.448"/><path d="m191.425 18.09a35.541 35.541 0 0 0 -7.75.86 35.445 35.445 0 0 1 0 69.176 35.447 35.447 0 1 0 7.75-70.036z" fill="#f8d323"/><path d="m206.438 53.52v10.3a2.828 2.828 0 0 1 -.9 2.089 2.956 2.956 0 0 1 -2.142.885h-9.064v7.258a2.842 2.842 0 0 1 -.885 2.107 2.886 2.886 0 0 1 -2.089.867 2.968 2.968 0 0 1 -2.16-.867 2.84 2.84 0 0 1 -.885-2.107v-7.324h-8.993a2.882 2.882 0 0 1 -2.089-.867 2.84 2.84 0 0 1 -.885-2.107 2.961 2.961 0 0 1 2.974-2.974h21.032v-4.285h-20.965a2.9 2.9 0 0 1 -2.106-.85 2.849 2.849 0 0 1 -.868-2.125v-10.267a2.962 2.962 0 0 1 2.974-2.974h8.922v-7.259a2.937 2.937 0 0 1 3.081-2.974 2.829 2.829 0 0 1 2.071.867 2.87 2.87 0 0 1 .867 2.107v7.258h9.135a2.958 2.958 0 0 1 2.142.885 2.831 2.831 0 0 1 .9 2.089 3.084 3.084 0 0 1 -3.045 3.045h-21.028v4.248h20.961a2.959 2.959 0 0 1 2.142.885 2.83 2.83 0 0 1 .903 2.09z" fill="#3f3679"/><path d="m137.9 37.669h-44.3a1.1 1.1 0 0 0 -1.1 1.1v29.531a1.1 1.1 0 0 0 1.1 1.1h44.3a1.1 1.1 0 0 1 1.1 1.1v5.317a1.1 1.1 0 0 0 1.882.78l22.288-22.288a1.1 1.1 0 0 0 0-1.559l-22.283-22.28a1.1 1.1 0 0 0 -1.882.78v5.317a1.1 1.1 0 0 1 -1.105 1.102z" fill="#f46275"/><g fill="#3f3679"><path d="m241.92 152.577v-1.291h5.98a5.039 5.039 0 0 0 5.033-5.033v-2.509a5.039 5.039 0 0 0 -5.033-5.033h-6.938l-48.58-40.223a1.5 1.5 0 0 0 -1.914 0l-48.578 40.223h-6.938a5.039 5.039 0 0 0 -5.033 5.033v2.509a5.039 5.039 0 0 0 5.033 5.033h5.979v1.291a6.506 6.506 0 0 0 3.867 5.938v44.928a6.506 6.506 0 0 0 -3.867 5.938v1.291h-4.19a1.5 1.5 0 0 0 -1.5 1.5v5.883h-2.786a1.5 1.5 0 0 0 -1.5 1.5v5.883h-5.908v-5.883a1.5 1.5 0 0 0 -1.5-1.5h-2.787v-5.885a1.5 1.5 0 0 0 -1.5-1.5h-4.19v-1.29a6.5 6.5 0 0 0 -3.557-5.788v-45.227a6.5 6.5 0 0 0 3.557-5.788v-1.291h5.979a5.039 5.039 0 0 0 5.033-5.033v-2.509a5.039 5.039 0 0 0 -5.033-5.033h-6.939l-48.578-40.223a1.5 1.5 0 0 0 -1.914 0l-48.579 40.223h-6.939a5.039 5.039 0 0 0 -5.033 5.033v2.509a5.039 5.039 0 0 0 5.033 5.033h5.98v1.291a6.506 6.506 0 0 0 3.867 5.938v44.928a6.506 6.506 0 0 0 -3.867 5.938v1.291h-4.19a1.5 1.5 0 0 0 -1.5 1.5v5.883h-2.79a1.5 1.5 0 0 0 -1.5 1.5v7.383a1.5 1.5 0 0 0 1.5 1.5h244.8a1.5 1.5 0 0 0 1.5-1.5v-7.383a1.5 1.5 0 0 0 -1.5-1.5h-2.79v-5.885a1.5 1.5 0 0 0 -1.5-1.5h-4.19v-1.29a6.5 6.5 0 0 0 -3.557-5.788v-45.227a6.5 6.5 0 0 0 3.557-5.788zm-3 0a3.5 3.5 0 0 1 -3.5 3.5h-6.291a3.5 3.5 0 0 1 -3.5-3.5v-1.291h13.291zm-3.557 50.3h-5.863v-43.8h5.867zm-12.734 6.5v1.291h-21.559v-1.288a6.5 6.5 0 0 0 -3.556-5.787v-45.229a6.5 6.5 0 0 0 3.556-5.787v-1.291h21.559v1.291a6.506 6.506 0 0 0 3.867 5.938v44.928a6.506 6.506 0 0 0 -3.867 5.937zm-62.407 1.291v-1.288a6.5 6.5 0 0 0 -3.556-5.787v-45.229a6.5 6.5 0 0 0 3.556-5.787v-1.291h21.558v1.291a6.506 6.506 0 0 0 3.866 5.937v44.928a6.506 6.506 0 0 0 -3.866 5.937v1.291zm-12.422-51.591h5.868v43.8h-5.868zm40.849 0h5.868v43.8h-5.868zm5.924-3h-6.29a3.5 3.5 0 0 1 -3.5-3.5v-1.291h13.29v1.291a3.5 3.5 0 0 1 -3.503 3.5zm-9.79 53.3a3.5 3.5 0 0 1 3.5-3.5h6.29a3.5 3.5 0 0 1 3.5 3.5v1.291h-13.293zm6.645-107.79 44.831 37.121h-89.665zm-58.506 44.663v-2.509a2.036 2.036 0 0 1 2.033-2.033h112.945a2.036 2.036 0 0 1 2.033 2.033v2.509a2.036 2.036 0 0 1 -2.033 2.033h-112.948a2.036 2.036 0 0 1 -2.033-2.03zm11.012 5.033h13.291v1.291a3.5 3.5 0 0 1 -3.5 3.5h-6.291a3.5 3.5 0 0 1 -3.5-3.5zm0 58.094a3.5 3.5 0 0 1 3.5-3.5h6.291a3.5 3.5 0 0 1 3.5 3.5v1.291h-13.294zm-31.861 1.291h-13.295v-1.288a3.5 3.5 0 0 1 3.5-3.5h6.291a3.5 3.5 0 0 1 3.5 3.5zm-37.85 0v-1.288a6.5 6.5 0 0 0 -3.556-5.787v-45.229a6.5 6.5 0 0 0 3.556-5.787v-1.291h21.555v1.291a6.506 6.506 0 0 0 3.867 5.938v44.928a6.506 6.506 0 0 0 -3.867 5.938v1.291zm-40.849 0v-1.288a6.5 6.5 0 0 0 -3.556-5.787v-45.229a6.5 6.5 0 0 0 3.556-5.787v-1.291h21.556v1.291a6.506 6.506 0 0 0 3.866 5.937v44.928a6.506 6.506 0 0 0 -3.866 5.937v1.291zm-12.427-51.591h5.868v43.8h-5.868zm40.849 0h5.868v43.8h-5.864zm5.924-3h-6.29a3.5 3.5 0 0 1 -3.5-3.5v-1.291h13.29v1.291a3.5 3.5 0 0 1 -3.5 3.5zm-9.79 53.3a3.5 3.5 0 0 1 3.5-3.5h6.29a3.5 3.5 0 0 1 3.5 3.5v1.291h-13.29zm50.583-6.5h-5.867v-43.8h5.867zm3.557-50.3a3.5 3.5 0 0 1 -3.5 3.5h-6.291a3.5 3.5 0 0 1 -3.5-3.5v-1.291h13.291zm-47.495-50.987 44.831 37.121h-89.662zm-58.507 44.663v-2.509a2.036 2.036 0 0 1 2.032-2.033h112.948a2.036 2.036 0 0 1 2.033 2.033v2.509a2.036 2.036 0 0 1 -2.033 2.033h-112.948a2.036 2.036 0 0 1 -2.032-2.033zm11.012 5.033h13.291v1.291a3.5 3.5 0 0 1 -3.5 3.5h-6.291a3.5 3.5 0 0 1 -3.5-3.5zm0 58.094a3.5 3.5 0 0 1 3.5-3.5h6.291a3.5 3.5 0 0 1 3.5 3.5v1.291h-13.291zm-5.69 4.291h106.37v4.383h-106.37zm-2.07 11.766h-2.22v-4.383h114.946v4.383zm239.576 0h-114.942v-4.383h114.946zm-4.286-7.383h-106.37v-4.384h106.37zm-5.69-7.383h-13.291v-1.291a3.5 3.5 0 0 1 3.5-3.5h6.291a3.5 3.5 0 0 1 3.5 3.5z"/><path d="m64.575 90.486a36.832 36.832 0 0 0 32.6-19.579h40.325v4.919a2.6 2.6 0 0 0 4.443 1.84l13.962-13.956a36.948 36.948 0 1 0 0-20.343l-13.957-13.958a2.6 2.6 0 0 0 -4.448 1.841v4.919h-40.318a36.947 36.947 0 1 0 -32.607 54.317zm126.85-70.9a33.948 33.948 0 1 1 -33.061 41.661l5.873-5.873a2.6 2.6 0 0 0 0-3.68l-5.872-5.872a34.117 34.117 0 0 1 33.06-26.232zm-53.525 19.583a2.606 2.606 0 0 0 2.6-2.6v-4.361l21.329 21.33-21.329 21.33v-4.358a2.606 2.606 0 0 0 -2.6-2.6h-43.9v-28.741zm-73.325-19.579a33.849 33.849 0 0 1 29.161 16.579h-.136a2.606 2.606 0 0 0 -2.6 2.6v29.531a2.606 2.606 0 0 0 2.6 2.6h.135a33.946 33.946 0 1 1 -29.16-51.31z"/><path d="m27.323 236.41h-18a1.5 1.5 0 0 0 0 3h18a1.5 1.5 0 0 0 0-3z"/><path d="m246.68 236.41h-18a1.5 1.5 0 0 0 0 3h18a1.5 1.5 0 0 0 0-3z"/><path d="m218.479 236.41h-180.958a1.5 1.5 0 0 0 0 3h180.958a1.5 1.5 0 0 0 0-3z"/></g></svg>